<svg width="441" height="441" viewBox="0 0 441 441" fill="none" xmlns="http://www.w3.org/2000/svg">
<path fill-rule="evenodd" clip-rule="evenodd" d="M220.492 441C98.9167 441 0 342.066 0 220.492C0 98.8997 98.9167 0 220.509 0C342.1 0 441 98.9167 441 220.492C441 342.066 342.1 441 220.492 441ZM220.492 10.1043C104.479 10.1043 10.1043 104.496 10.1043 220.492C10.1043 336.487 104.513 430.879 220.509 430.879C336.504 430.879 430.896 336.487 430.896 220.492C430.896 104.496 336.504 10.1043 220.492 10.1043ZM137.956 390.734C74.8467 360.064 31.3506 295.355 31.3506 220.492C31.3506 193.071 37.2363 167.027 47.7148 143.519L137.956 390.734ZM332.591 158.777C339.804 171.365 348.19 187.559 348.19 210.932C348.19 227.143 343.393 247.505 333.799 272.085L314.917 335.126L246.569 131.798C257.932 131.203 268.206 130.012 268.206 130.012C278.396 128.805 277.205 113.818 266.999 114.414C266.999 114.414 236.362 116.829 216.579 116.829C198.004 116.829 166.772 114.414 166.772 114.414C156.583 113.801 155.375 129.4 165.581 130.012C165.581 130.012 175.243 131.203 185.433 131.798L214.895 212.548L173.491 336.691L104.615 131.798C115.995 131.203 126.253 130.012 126.253 130.012C136.442 128.805 135.234 113.818 125.045 114.414C125.045 114.414 94.4259 116.829 74.6426 116.829C71.0874 116.829 66.9028 116.744 62.463 116.608C96.2801 65.2359 154.422 31.3337 220.509 31.3337C269.737 31.3337 314.577 50.1475 348.241 80.9877C347.905 80.974 347.575 80.9492 347.246 80.9246C346.758 80.888 346.272 80.8516 345.775 80.8516C327.199 80.8516 314.016 97.0457 314.016 114.414C314.016 128.748 321.614 141.027 330.278 155.028C331.042 156.264 331.815 157.512 332.591 158.777ZM167.061 401.944L223.826 237.043L281.968 396.33C282.359 397.249 282.835 398.116 283.329 398.933C263.664 405.839 242.52 409.65 220.509 409.65C201.933 409.65 184.021 406.928 167.061 401.944ZM387.757 149.2C387.757 142.226 387.315 135.762 386.481 129.74C401.246 156.668 409.65 187.593 409.65 220.492C409.65 290.269 371.835 351.184 315.598 383.981L373.366 216.936C384.151 189.958 387.757 168.388 387.757 149.2Z" fill="#32316B"/>
</svg>
