<svg version="1.1"
    viewBox="0 0 24 24"
    aria-hidden="true"
    role="img"
     xmlns="http://www.w3.org/2000/svg" x="0px" y="0px"
>
    <defs>
        <linearGradient
            id="gh-grad"
            x1="0"
            x2="1"
            y1="0"
            y2="1"
        >
            <stop offset="0%" stop-color="#24292e" />
            <stop offset="100%" stop-color="#6b7280" />
        </linearGradient>
    </defs>
    <circle
        class="bg"
        cx="12"
        cy="12"
        r="12"
        fill="url(#gh-grad)"
    />
    <path
        class="logo"
        fill="#ffffff"
        d="M12 .5C5.73.5.75 5.48.75 11.75c0 4.92 3.19 9.09 7.61 10.56.56.1.77-.24.77-.54 0-.26-.01-1-.02-1.96-3.09.67-3.75-1.49-3.75-1.49-.51-1.3-1.25-1.65-1.25-1.65-1.02-.7.08-.69.08-.69 1.12.08 1.71 1.15 1.71 1.15 1 .17 1.56-.12 1.95-.47-2.47-.28-5.07-1.23-5.07-5.49 0-1.21.43-2.2 1.14-2.98-.11-.28-.5-1.42.11-2.96 0 0 .93-.3 3.05 1.13a10.6 10.6 0 0 1 2.78-.38c.94 0 1.88.13 2.78.38 2.12-1.43 3.05-1.13 3.05-1.13.62 1.54.22 2.68.11 2.96.71.78 1.14 1.77 1.14 2.98 0 4.27-2.6 5.21-5.08 5.48.16.14.3.42.3.85 0 .62-.01 1.12-.01 1.27 0 .3.2.65.78.54A11.26 11.26 0 0 0 23.25 11.75C23.25 5.48 18.27.5 12 .5z"
    />
</svg>
